<svg xmlns="http://www.w3.org/2000/svg" viewBox="0 0 512 640" x="0px" y="0px"><title>Lifestyle &amp;amp; Entertainment Vol.1</title><g><path d="M208.55,125.75a4.36,4.36,0,0,1-.51,0,5,5,0,0,1-4.47-5.48,41.69,41.69,0,0,0,.22-4.19,40.44,40.44,0,0,0-16.26-32.56,5,5,0,0,1,6-8,50.69,50.69,0,0,1,20,45.75A5,5,0,0,1,208.55,125.75Z"/><path d="M184,190.68H123.45l-41.76,0A37.53,37.53,0,0,1,72,117.23c0-.64-.06-1.27-.06-1.91a30.43,30.43,0,0,1,.26-3.94,5,5,0,0,1,9.92,1.32,19,19,0,0,0-.18,2.62,18.76,18.76,0,0,0,.55,4.55,5,5,0,0,1-.7,3.94A5,5,0,0,1,78.4,126,27.53,27.53,0,0,0,82,180.67H184a5,5,0,0,1,0,10Z"/><path d="M496.5,500.75H16.5a5,5,0,0,1-5-5V462.5a20,20,0,0,1,20-20h450a20,20,0,0,1,20,20v33.25A5,5,0,0,1,496.5,500.75Zm-475-10h470V462.5a10,10,0,0,0-10-10H31.5a10,10,0,0,0-10,10Z"/><path d="M226,194.82c-.23,0-22.93-.29-22.93-25.5s22.51-25.49,22.74-25.49a5,5,0,0,1,0,10c-2.16,0-12.78,1-12.78,15.49s10.81,15.46,13,15.5a5,5,0,0,1,0,10Z"/><path d="M410.63,194.82a5,5,0,0,1,0-10c2.09,0,12.75-1,12.75-15.5,0-15.06-11.61-15.49-12.94-15.49a5,5,0,0,1,0-10c.23,0,22.94.29,22.94,25.49S410.86,194.82,410.63,194.82Z"/><path d="M318.22,264.68a96,96,0,0,1-95.88-96V140.4l-.08-2.39v-.17a95.91,95.91,0,1,1,191.81,0l0,2.72.06,28.11A96.08,96.08,0,0,1,318.22,264.68Zm-86-126.93.08,2.38v28.55a85.91,85.91,0,1,0,171.82,0l-.09-30.79a85.91,85.91,0,1,0-171.81-.14Z"/><path d="M260.33,143a231.12,231.12,0,0,1-33.88-2.46,5,5,0,1,1,1.6-9.87,226.84,226.84,0,0,0,48.12,1.64c21.84-1.82,49.48-8.59,57.18-30.51a5,5,0,0,1,9.54.34c.36,1.21,9.61,30.62,66.07,28.47a5,5,0,1,1,.38,10c-44.28,1.69-63.37-14.89-71.16-26.08C322.9,138.13,287.29,143,260.33,143Z"/><path d="M275.93,171.39a5,5,0,0,1-5-5v-1.28a5,5,0,0,1,10,0v1.28A5,5,0,0,1,275.93,171.39Z"/><path d="M360.47,171.39a5,5,0,0,1-5-5v-1.28a5,5,0,0,1,10,0v1.28A5,5,0,0,1,360.47,171.39Z"/><path d="M416,340.2a38,38,0,1,1,38-38A38.08,38.08,0,0,1,416,340.2Zm0-66.07a28,28,0,1,0,28,28A28.07,28.07,0,0,0,416,274.13Z"/><path d="M216.67,422.31a42.6,42.6,0,1,1,42.6-42.6A42.65,42.65,0,0,1,216.67,422.31Zm0-75.2a32.6,32.6,0,1,0,32.6,32.6A32.64,32.64,0,0,0,216.67,347.11Z"/><path d="M394.21,452.5a5,5,0,0,1-3.68-8.38,98.33,98.33,0,0,0,17.3-106.65,5,5,0,1,1,9.12-4.09,108.29,108.29,0,0,1-19.06,117.5A5,5,0,0,1,394.21,452.5Z"/><path d="M221.61,346.23a4.94,4.94,0,0,1-1.76-.33,5,5,0,0,1-2.92-6.44A108.25,108.25,0,0,1,385.54,293a5,5,0,0,1-6.23,7.83,98.25,98.25,0,0,0-153,42.19A5,5,0,0,1,221.61,346.23Z"/><path d="M242.19,452.5a5,5,0,0,1-3.68-1.62,107.83,107.83,0,0,1-20.25-31.65,5,5,0,0,1,9.23-3.84,98.2,98.2,0,0,0,18.38,28.73,5,5,0,0,1-3.68,8.38Z"/><path d="M348.37,451.93a5,5,0,0,1-2-9.58A70.53,70.53,0,1,0,250.76,357a5,5,0,1,1-9.56-2.93,81.21,81.21,0,0,1,28.69-40.81,80.53,80.53,0,1,1,80.48,138.25A4.92,4.92,0,0,1,348.37,451.93Z"/><path d="M287.79,451.83a5,5,0,0,1-2-.43,81,81,0,0,1-43.31-46.34,5,5,0,0,1,9.4-3.4,70.94,70.94,0,0,0,37.95,40.59,5,5,0,0,1-2,9.58Z"/><path d="M385.57,380a28,28,0,0,1-10.32-2.29l-.14-.06c-.3-.14-30.77-14.34-56.9-14.34-26.62,0-47,8.68-60.53,14.42l-1.09.44a5,5,0,0,1-3.55-9.35l.74-.3c14.24-6.05,35.78-15.21,64.43-15.21,28,0,58.85,14.21,61.08,15.25,2.79,1.18,7,1.92,8.18,1.09.26-.18.54-1,.5-2.49a5,5,0,1,1,10-.27c.17,6.28-2.57,9.48-4.9,11.05A13.25,13.25,0,0,1,385.57,380Z"/><path d="M390,406.11h-.13A5,5,0,0,1,385,401c0-.35-.05-.4-.15-.49-1.12-1.09-4.81-1.57-7-1.44H337.52a5,5,0,0,1,0-10h39.94c1.92-.1,9.76-.2,14.35,4.23a10.39,10.39,0,0,1,3.19,7.93A5,5,0,0,1,390,406.11Z"/><path d="M252.92,399.29a5,5,0,0,1-.75-9.94,25.51,25.51,0,0,1,3.91-.28h41a5,5,0,0,1,0,10h-41a16,16,0,0,0-2.4.16A4.87,4.87,0,0,1,252.92,399.29Z"/><path d="M337,452.5a5,5,0,0,1-5-5V392.41c0-.13,0-.25,0-.37s.25-5.15-3.05-8.63c-2.31-2.45-6-3.69-11.05-3.69-5.57,0-9.59,1.24-12,3.69a9,9,0,0,0-2.44,6.12v58a5,5,0,0,1-10,0V389.9a19.06,19.06,0,0,1,5.05-13.23c4.32-4.62,10.83-6.95,19.35-6.95,8,0,14.16,2.33,18.44,6.94,5.81,6.26,5.73,14.24,5.64,15.9V447.5A5,5,0,0,1,337,452.5Z"/><path d="M189.16,359.54a5,5,0,0,1-5-5V294.87c0-12.58,6-24.42,17.22-34.22A72,72,0,0,1,218,249.81l32.64-16.63a5,5,0,0,1,4.54,8.91l-32.76,16.69-.29.13c-.27.12-28,12.5-28,36v59.67A5,5,0,0,1,189.16,359.54Z"/><path d="M189.16,440.41a5,5,0,0,1-5-5V405.35a5,5,0,0,1,10,0v30.06A5,5,0,0,1,189.16,440.41Z"/><path d="M447.84,298.23a5,5,0,0,1-5-5,27.62,27.62,0,0,0-5.27-15.77,5,5,0,0,1,8.24-5.66,37.44,37.44,0,0,1,7,21.43A5,5,0,0,1,447.84,298.23Z"/><path d="M406.22,253.92a5,5,0,0,1-2.26-.55L381.8,242.09a5,5,0,0,1,4.54-8.91l22.16,11.28a5,5,0,0,1-2.28,9.46Z"/><path d="M447.84,451.83a5,5,0,0,1-5-5V312.46a5,5,0,0,1,10,0V446.83A5,5,0,0,1,447.84,451.83Z"/><path d="M292.31,282.88c-23,0-30.88-24.6-31.82-37.61a5,5,0,0,1,10-.73c.09,1.21,2.39,28.34,21.84,28.34a5,5,0,1,1,0,10Z"/><path d="M344.06,282.88a5,5,0,0,1,0-10c8,0,13.89-4.36,17.92-13.3a51.3,51.3,0,0,0,3.93-15,5,5,0,0,1,10,.73C374.94,258.28,367.08,282.88,344.06,282.88Z"/><path d="M176.75,451.93a5,5,0,0,1-3.25-8.8l34.62-29.62a5,5,0,1,1,6.5,7.6L180,450.73A5,5,0,0,1,176.75,451.93Z"/><path d="M272.82,369.75a5,5,0,0,1-3.25-8.8l68-58.13a5,5,0,0,1,6.5,7.6l-68,58.13A5,5,0,0,1,272.82,369.75Z"/><path d="M366,290.06a5,5,0,0,1-3.28-8.77L493.22,167.85a5,5,0,0,1,8.28,3.78V226a5,5,0,0,1-1.68,3.74l-54.58,48.47a5,5,0,1,1-6.64-7.48l52.9-47V182.6L369.26,288.84A5,5,0,0,1,366,290.06Z"/><path d="M263.1,432.43a5,5,0,0,1-3.25-8.8l34-29.06a5,5,0,0,1,6.5,7.6l-34,29.06A5,5,0,0,1,263.1,432.43Z"/><path d="M342.6,364.43a5,5,0,0,1-3.25-8.8l32.5-27.8a5,5,0,1,1,6.5,7.6l-32.5,27.8A5,5,0,0,1,342.6,364.43Z"/><path d="M473.5,451.93a5,5,0,0,1-5-5V304.85a5.12,5.12,0,0,1,0-.56c0-.23,2.39-23.77-12.75-39.54a5,5,0,0,1,7.22-6.92c17.61,18.35,15.81,44,15.5,47.27V446.93A5,5,0,0,1,473.5,451.93Z"/><path d="M164.1,451.93a5,5,0,0,1-5-5V305.1c-.3-3.18-2-27.7,14.28-46,11.4-12.77,28.66-19.24,51.3-19.24a5,5,0,0,1,0,10c-19.67,0-34.42,5.35-43.84,15.9-14.15,15.84-11.8,38.25-11.77,38.48a5.25,5.25,0,0,1,0,.56V446.93A5,5,0,0,1,164.1,451.93Z"/><path d="M238.64,249.91H209a30,30,0,0,1-30-30V146.83a30,30,0,0,1,30-30h19.76a5,5,0,0,1,0,10H209a20,20,0,0,0-20,20v73.08a20,20,0,0,0,20,20h29.64a5,5,0,0,1,0,10Z"/><path d="M410.45,249.91H398.62a5,5,0,0,1,0-10h11.83a5,5,0,0,1,0,10Z"/><path d="M450,216.17a5,5,0,0,1-5-5V146.83a20,20,0,0,0-20-20H409.87a5,5,0,0,1,0-10H425a30,30,0,0,1,30,30v64.34A5,5,0,0,1,450,216.17Z"/><path d="M173.33,116.52H36.67c-10,0-17.4-7.09-19.9-19,0-.1,0-.19-.05-.29L11.55,62.58a6.13,6.13,0,0,1-.05-.74,20,20,0,0,1,20-20h146a20,20,0,0,1,20,20,4,4,0,0,1,0,.6L193.3,97.12a5.19,5.19,0,0,1-.19.87C189.34,110.29,182.68,116.52,173.33,116.52ZM26.59,95.63c1.08,5,3.7,10.89,10.08,10.89H173.33c3.27,0,7-1.32,10.09-11l4.08-33.9a10,10,0,0,0-10-9.73H31.5a10,10,0,0,0-10,9.67Z"/><path d="M88.75,51.84a5,5,0,0,1-5-5V15.5a5,5,0,0,1,5-5h31.5a5,5,0,0,1,5,5V46.84a5,5,0,0,1-10,0V20.5H93.75V46.84A5,5,0,0,1,88.75,51.84Z"/><path d="M138,452.5a5,5,0,0,1-5-5V316.75a9.56,9.56,0,0,0-9.5-9.59H47.31a9.83,9.83,0,0,0-9.81,9.59V447.5a5,5,0,0,1-10,0V316.75a19.72,19.72,0,0,1,19.81-19.59h76.16A19.57,19.57,0,0,1,143,316.75V447.5A5,5,0,0,1,138,452.5Z"/><path d="M56.75,342.75a15,15,0,1,1,15-15A15,15,0,0,1,56.75,342.75Zm0-20a5,5,0,1,0,5,5A5,5,0,0,0,56.75,322.75Z"/><path d="M57.38,355.62H56.12a5,5,0,0,1,0-10h1.26a5,5,0,0,1,0,10Z"/><path d="M73.66,307.16a5,5,0,0,1-5-4.81c0-.67-.5-16.57,10.83-27.48,6.72-6.46,15.94-9.72,27.48-9.72H107c1.77-16.78,8.66-28.65,21-36.18,11.75-7.19,26.83-9.84,41.37-7.25a51.71,51.71,0,0,1,23.73,10.46,5,5,0,1,1-6.32,7.76,41.8,41.8,0,0,0-19.16-8.38c-12.17-2.15-24.7,0-34.4,5.94-10.6,6.48-15.86,17-16.58,33.05a5,5,0,0,1-5.37,4.77c-11-.84-19.33,1.44-24.85,6.76-8,7.71-7.78,19.77-7.78,19.89a5,5,0,0,1-4.8,5.19Z"/><path d="M164.1,340.69H138.31a5,5,0,0,1,0-10H164.1a5,5,0,0,1,0,10Z"/><path d="M166.1,283.06a5,5,0,0,1-3.71-1.64c-3.11-3.42-6.32-5.13-9.81-5.22h-.28c-6.38,0-11.8,5.33-11.85,5.38a5,5,0,0,1-7.11-7c.34-.34,8.5-8.58,19.38-8.35,6.33.13,12.07,3,17.08,8.5a5,5,0,0,1-3.7,8.36Z"/><path d="M135.71,84.18h-1a5,5,0,0,1,0-10h1a5,5,0,0,1,0,10Zm-21,0h-1a5,5,0,1,1,0-10h1a5,5,0,0,1,0,10Zm-21,0h-1a5,5,0,1,1,0-10h1a5,5,0,0,1,0,10Zm-21,0h-1a5,5,0,1,1,0-10h1a5,5,0,0,1,0,10Z"/></g><text x="0" y="527" fill="#000000" font-size="5px" font-weight="bold" font-family="'Helvetica Neue', Helvetica, Arial-Unicode, Arial, Sans-serif">Created by Jino</text><text x="0" y="532" fill="#000000" font-size="5px" font-weight="bold" font-family="'Helvetica Neue', Helvetica, Arial-Unicode, Arial, Sans-serif">from the Noun Project</text></svg>