<?xml version="1.0" encoding="utf-8"?>
<!-- Uploaded to: SVG Repo, www.svgrepo.com, Generator: SVG Repo Mixer Tools -->
<svg width="800px" height="800px" viewBox="0 -10.34 335.498 335.498" xmlns="http://www.w3.org/2000/svg"><defs><style>.a{fill:#ffda71;}.b{fill:#74c66d;}.c{fill:#211715;}.d{fill:#ffffff;}.e{fill:#85807f;}.f{fill:#e2e2e2;}.g{fill:#7a7473;}</style></defs><path class="a" d="M298.822,41.713c-7.032-5.982-14.7-12.4-22.258-18.58a3.933,3.933,0,0,0-6.432,3.035V82.757a12.4,12.4,0,0,0,4.512,9.561c7.753,6.4,15.167,12.5,23.391,19.433a5.188,5.188,0,0,0,3.353,1.223V42.648A3.917,3.917,0,0,1,298.822,41.713Z"/><path class="b" d="M326.233,23.023c-7.422,6-14.973,12.345-22.291,18.665a3.933,3.933,0,0,1-2.554.96v70.326a5.189,5.189,0,0,0,3.354-1.223c8.22-6.934,15.631-13.032,23.379-19.424a12.441,12.441,0,0,0,4.524-9.591V26.1A3.941,3.941,0,0,0,326.233,23.023Z"/><path class="c" d="M298.588,43.133v68.415c0,3.6,5.6,3.609,5.6,0V43.133c0-3.6-5.6-3.609-5.6,0Z"/><path class="c" d="M300.8,39.733q-8.618-7.327-17.339-14.535-2.078-1.718-4.163-3.426a8.381,8.381,0,0,0-4.616-2.293,6.736,6.736,0,0,0-6.69,3.8c-1.005,2.177-.662,4.8-.662,7.138V53.731c0,9.672-.137,19.355,0,29.026a15.333,15.333,0,0,0,2.815,8.782c1.991,2.744,4.883,4.71,7.474,6.848q8.262,6.817,16.475,13.694a25.964,25.964,0,0,0,4.346,3.469,6.371,6.371,0,0,0,5.4.218c1.7-.714,3.072-2.2,4.468-3.372q2.2-1.854,4.415-3.7,8.127-6.789,16.312-13.509c3.936-3.247,6.385-7.415,6.411-12.625.006-1.356,0-2.712,0-4.068V37.5c0-3.782.12-7.587,0-11.368a6.9,6.9,0,0,0-3.265-5.815c-2.822-1.729-5.879-.911-8.3,1.025-5.8,4.642-11.483,9.437-17.134,14.257q-2.031,1.733-4.053,3.476c-.492.424-.737.772-1.373.81a3.929,3.929,0,0,0-.52-.153,2.894,2.894,0,0,0-3.96,0c-.965.965-1.2,3.028,0,3.96a6.921,6.921,0,0,0,9.08-.025c2.751-2.259,5.406-4.645,8.126-6.944s5.457-4.587,8.207-6.855q2.044-1.687,4.1-3.36c.51-.414,1.008-.882,1.544-1.258,0,0,.839-.414.4-.239.484-.194-.174-.068.37-.069.774,0-.39-.166.348.051.805.238-.217-.136.216.091.108.057.538.414.209.131.5.431-.074-.278.256.3.19.336.123.145.146.577,0,.017,0,.035,0,.052,0,.346,0,.692,0,1.037V72.539c0,3.386.037,6.775,0,10.161a9.939,9.939,0,0,1-1.628,5.4,13,13,0,0,1-2.787,2.837l-3.891,3.209q-7.873,6.5-15.706,13.044a42.059,42.059,0,0,1-3.854,3.261c-.827.534-1.2-.029-2.047-.747q-4.032-3.4-8.086-6.774c-5.149-4.286-10.5-8.393-15.513-12.837a9.862,9.862,0,0,1-3.348-6.191,49.511,49.511,0,0,1-.053-5.7V27.422c0-.416-.022-.838,0-1.254s-.044-.254.149-.58c.216-.362,0-.134.352-.36a.889.889,0,0,1,.831-.189c.44.095-.5-.279.233.071-.437-.208.415.259.4.249.549.391,1.056.876,1.577,1.3q2.179,1.791,4.353,3.59,4.041,3.345,8.059,6.718,3.988,3.348,7.955,6.722a2.874,2.874,0,0,0,3.96,0A2.824,2.824,0,0,0,300.8,39.733Z"/><path class="d" d="M104.132,65.54c8.2-8.288,22.615-15,47.773-15,68.977,0,58.653,45.841,58.653,45.841a9.126,9.126,0,0,1,6.6-2.415c4.729.166,6.741,2.724,7.607,4.226,2.585,4.483,2.475,12.742.74,17.853-1.228,3.619-3.241,9.156-8.093,13.126a10.059,10.059,0,0,1-7.756,2.239l-.742-.125a59.349,59.349,0,0,1-2.671,7.242c-1.865,5.064-11.719,22.136-24.451,30.161a65.146,65.146,0,0,0,1.142,9.31c.7,3.654,1.863,7.095,6.087,8.75.27.09,9.072,3.886,13.833,5.926-9.469,7.2-29.871,14.681-47.825,14.634-19.827-.048-37.955-8.1-49.342-15.52,5.359-2.245,11.79-4.967,12.008-5.04,4.079-1.672,5.372-5.1,6.087-8.75a62.914,62.914,0,0,0,1.092-8.1c-5.9-3.038-11.247-7.674-16.35-13.782a69.372,69.372,0,0,1-13.168-24.842,9.875,9.875,0,0,1-8.392-2.1c-4.852-3.97-6.865-9.507-8.094-13.126-1.735-5.111-1.844-13.37.741-17.853.866-1.5,2.877-4.06,7.606-4.226a9.126,9.126,0,0,1,6.6,2.415S90.9,78.911,104.132,65.54Z"/><path class="e" d="M84.125,52.651c-3.834,13.388-4.183,28.284.244,41.768a10.957,10.957,0,0,1,2.845-.453,9.126,9.126,0,0,1,6.6,2.415l9.33-7.834c7-7.8,19.36-19.562,28.032-24.111,1.017-.533,2.323.189,2.735,1.888a11.181,11.181,0,0,1,.267,4.068,2.118,2.118,0,0,0,3.019,2.275c6.191-3.439,17.222-10.361,25.043-13.657l11.6,1.425a37.43,37.43,0,0,1,10.683,6.719c7.041,6.058,13.791,14.369,16.78,21.891l9.259,7.336a9.126,9.126,0,0,1,6.6-2.415,10.863,10.863,0,0,1,3.162.553c5.708-22.783,2.281-52.213-15.543-66.36l-7.028-7C189.866,10.1,173.9,3.705,153.459,2.879c-22.6-1.206-40.627,9.836-50.318,18.411C94.43,28.785,87.733,40.05,84.125,52.651Z"/><path class="c" d="M95.791,94.4A12.7,12.7,0,0,0,81.513,92.58c-3.328,1.711-5.206,5.126-6.017,8.659a32.585,32.585,0,0,0,5.065,24.982c3.488,5.061,8.491,8.8,14.9,7.889,1.5-.214,2.32-2.119,1.956-3.444a2.874,2.874,0,0,0-3.445-1.956c-3.466.494-6.518-2.445-8.36-5.007a29.689,29.689,0,0,1-4.045-8.4,25.192,25.192,0,0,1-1.043-10.286,15.4,15.4,0,0,1,1.112-4.687c-.1.225.262-.494.316-.591.108-.193.224-.378.339-.565.371-.605-.149.083.151-.229.209-.219.4-.449.62-.663.116-.114.242-.223.366-.326-.227.189-.111.079.058-.035a7.346,7.346,0,0,1,1.123-.635,8.713,8.713,0,0,1,2.183-.5,6.523,6.523,0,0,1,5.039,1.574c2.657,2.426,6.628-1.523,3.96-3.96Z"/><path class="c" d="M87.069,93.677a68.218,68.218,0,0,1-1.377-35.83c2.462-11.017,7.366-21.837,14.933-30.184a68.467,68.467,0,0,1,25.123-17.191,65.523,65.523,0,0,1,18.136-4.586,80.515,80.515,0,0,1,20.53.849,62.839,62.839,0,0,1,18.517,5.713,34.833,34.833,0,0,1,12.4,10.127,2.88,2.88,0,0,0,3.831,1,2.822,2.822,0,0,0,1-3.831c-6.856-9.528-17.86-14.8-29.056-17.391-13.83-3.2-28.622-3.4-42.2,1.02A78.745,78.745,0,0,0,99.578,20.735C90.7,29.08,84.707,40.38,81.394,52.016a75.869,75.869,0,0,0-1.027,38.6c.377,1.534.815,3.05,1.3,4.552,1.109,3.413,6.518,1.953,5.4-1.489Z"/><path class="c" d="M212.538,98.361a7.016,7.016,0,0,1,8.345-.442c.379.25-.065-.125.335.279.191.193.383.38.568.579.1.105.185.219.275.33-.063-.078-.3-.486-.085-.088.11.2.253.387.368.586a13.115,13.115,0,0,1,1.37,4.34c1.039,6.388-.8,13.183-4.132,18.52-1.877,3.009-5.195,6.814-9.185,6.245a2.894,2.894,0,0,0-3.444,1.956c-.361,1.313.449,3.229,1.955,3.444,10.494,1.5,16.555-8.9,19.343-17.47a30.3,30.3,0,0,0,.919-13.827c-.581-3.749-2.095-7.312-5.242-9.575-4.573-3.289-11.295-2.54-15.35,1.163-2.667,2.436,1.3,6.387,3.96,3.96Z"/><path class="c" d="M207.31,126.255a56.011,56.011,0,0,1-2.171,7.533c-.692,1.947-1.208,2.765-1.847,4.625-.115.336.326-.694.09-.217-.056.113-.1.231-.155.346-.1.224-.206.447-.312.669-.3.629-.617,1.25-.943,1.866-.733,1.382-1.517,2.738-2.334,4.073a71.53,71.53,0,0,1-15.612,18.506,29.28,29.28,0,0,1-11.7,6.081c-3.511.805-2.025,6.206,1.489,5.4,8.866-2.033,16.245-8.552,22.018-15.282A79.041,79.041,0,0,0,208.1,141.3c.285-.634.538-1.279.805-1.919-.358.858-.032.107.038-.05.167-.381.328-.766.488-1.15q.357-.859.685-1.732a57.35,57.35,0,0,0,2.6-8.7,2.869,2.869,0,0,0-1.955-3.444,2.828,2.828,0,0,0-3.445,1.956Z"/><path class="c" d="M91.492,127.536a72.889,72.889,0,0,0,10.366,24.318c5.285,7.913,12.226,15.325,20.633,19.948a40.577,40.577,0,0,0,13.646,4.62,2.892,2.892,0,0,0,3.444-1.956c.362-1.317-.45-3.223-1.956-3.444a39.023,39.023,0,0,1-20.866-10.272,66.346,66.346,0,0,1-16.032-22.712,69.317,69.317,0,0,1-3.835-11.991c-.794-3.514-6.195-2.026-5.4,1.489Z"/><path class="c" d="M141.435,145.532A23.606,23.606,0,0,0,152.8,148.16c4.063-.027,8.18-.821,11.436-3.358,1.194-.93.976-2.984,0-3.96a2.871,2.871,0,0,0-3.96,0c.839-.654.15-.127-.066.011s-.466.284-.708.41c-.184.1-1.037.443-.3.168-.325.122-.646.249-.977.355a16.731,16.731,0,0,1-2.734.624c.389-.056-.177.016-.307.029-.269.027-.537.049-.806.067q-.97.061-1.944.054c-.58,0-1.161-.023-1.74-.063-.266-.018-.532-.039-.8-.066,0,0-.931-.125-.432-.048a19.249,19.249,0,0,1-2.554-.567c-.358-.107-.707-.235-1.06-.356-.115-.039-.225-.1-.342-.133.7.2.247.11.051.018q-.657-.31-1.3-.648a2.861,2.861,0,0,0-3.831,1,2.83,2.83,0,0,0,1,3.831Z"/><path class="c" d="M151.459,118.65a53.547,53.547,0,0,1,1.265,5.788l-.1-.744a3.5,3.5,0,0,1,.022.8l.1-.744a1.94,1.94,0,0,1-.088.359l.282-.669a1.435,1.435,0,0,1-.126.231l.437-.567a1.194,1.194,0,0,1-.189.187l.567-.438a3.784,3.784,0,0,1-.458.243l.669-.283a3.326,3.326,0,0,1-.773.226l.744-.1a3.032,3.032,0,0,1-.725,0l.744.1c-.273-.038-.542-.1-.815-.141a3.1,3.1,0,0,0-2.158.282,2.8,2.8,0,0,0-1,3.831,2.677,2.677,0,0,0,1.673,1.287c.608.082,1.2.237,1.815.264A5.77,5.77,0,0,0,156,127.93a3.8,3.8,0,0,0,2.116-2.507,6.382,6.382,0,0,0-.028-2.72c-.315-1.865-.746-3.713-1.226-5.542a2.8,2.8,0,0,0-5.4,1.489Z"/><path class="c" d="M120.691,102.3c-.966,3.142-.336,10.368,5.615,10.983,7.865-.047,8.284-8.784,5.636-12.892C129.774,97.03,123.4,95.631,120.691,102.3Z"/><path class="c" d="M183.678,102.3c.967,3.141.337,10.367-5.614,10.982-7.866-.048-8.285-8.784-5.637-12.892C174.6,97.03,180.969,95.632,183.678,102.3Z"/><path class="c" d="M99.289,197.417c1.421-.456,2.8-1.119,4.175-1.691q3.783-1.574,7.557-3.166,3.122-1.314,6.245-2.628c2.53-1.059,4.8-2.206,6.5-4.469,2.906-3.868,3.347-9.466,3.793-14.113a2.82,2.82,0,0,0-2.8-2.8,2.862,2.862,0,0,0-2.8,2.8,56.452,56.452,0,0,1-.984,6.4,11.17,11.17,0,0,1-1.66,4.362,6.268,6.268,0,0,1-1.222,1.242,9.3,9.3,0,0,1-1.105.654c-1.036.556.16-.051-.123.071-.445.193-.9.372-1.345.56-4.38,1.837-8.753,3.691-13.137,5.517-1.511.629-3.024,1.361-4.585,1.861-3.418,1.1-1.957,6.5,1.489,5.4Z"/><path class="c" d="M179.2,171.592c.411,4.124.819,8.68,2.753,12.427a11.388,11.388,0,0,0,3.786,4.178c.908.612,2.032.828,2.928,1.411-.261-.169-.695-.294-.217-.09l.405.172,1.242.531q1.539.659,3.077,1.32l6.978,3c1.637.7,3.266,1.463,4.931,2.1a2.824,2.824,0,0,0,3.445-1.956,2.862,2.862,0,0,0-1.956-3.444c-.1-.038-.194-.08-.291-.119-.494-.2.623.265.256.108l-.439-.187q-1.174-.5-2.348-1-3.222-1.381-6.444-2.768-2.78-1.194-5.562-2.385c-1.648-.7-3.166-1.242-4.243-2.53.073.087.237.348-.108-.143-.113-.161-.218-.329-.318-.5-.166-.278-.471-.883-.516-.99a18.347,18.347,0,0,1-.67-2.257,53.313,53.313,0,0,1-1.089-6.87,2.879,2.879,0,0,0-2.8-2.8,2.819,2.819,0,0,0-2.8,2.8Z"/><path class="c" d="M202.794,30.139c14.154,11.336,18.1,31.059,17.117,48.441a80.986,80.986,0,0,1-2.293,15.188c-.868,3.5,4.531,4.99,5.4,1.489a88.5,88.5,0,0,0,2.271-29.406c-.905-9.68-3.382-19.379-8.375-27.795a43.787,43.787,0,0,0-10.16-11.877,2.887,2.887,0,0,0-3.96,0,2.821,2.821,0,0,0,0,3.96Z"/><path class="c" d="M172.423,62.853a47.158,47.158,0,0,1,15.136,11.04c4.423,4.6,8.627,9.929,11.04,15.9a2.889,2.889,0,0,0,3.445,1.956A2.818,2.818,0,0,0,204,88.3a58.541,58.541,0,0,0-12.177-18.05c-4.8-5.055-10.158-9.427-16.573-12.234a2.89,2.89,0,0,0-3.831,1c-.694,1.187-.388,3.221,1,3.831Z"/><path class="c" d="M105.121,90.526c6.928-7.7,14.6-15.237,23.191-21.072.89-.6,1.8-1.187,2.723-1.734.24-.142,1.192-.484,1.3-.731-.12.282-1.414-.072-1.235-.3-.078.1.325,1.534.34,1.836.032.628-.043,1.237-.062,1.862a5.12,5.12,0,0,0,2.152,4.441c2.582,1.805,5.033.3,7.372-1.049,2.2-1.266,4.385-2.557,6.58-3.831a147.447,147.447,0,0,1,16.172-8.525c1.392-.592,1.7-2.644,1-3.831a2.874,2.874,0,0,0-3.831-1.005,136.077,136.077,0,0,0-14.5,7.556c-2.288,1.318-4.562,2.657-6.845,3.984q-1.422.827-2.851,1.64a5.754,5.754,0,0,0-.614.345c-.541.4.112-.066.437.023.7.191.478,1.071.552-.071.18-2.814-.238-6.463-2.945-8.014-2.648-1.518-5.269.409-7.469,1.829a102.683,102.683,0,0,0-12.776,10.063,169.5,169.5,0,0,0-12.656,12.62c-2.4,2.673,1.544,6.646,3.96,3.959Z"/><path class="d" d="M204.391,275.234c-17.608-.955-34.913-1.427-50.6-1.427-40.441,0-91.638,3.135-131.077,9.614,4.559-20.348,9.734-38.543,20.32-54.361,12.919-19.3,33.8-28.735,55.146-35.587l6.961-2.049c11.343,7.524,29.736,15.836,49.884,15.884,18.509.049,39.62-7.9,48.672-15.3l4.989,1.469c21.347,6.852,42.228,16.283,55.147,35.587,10.564,15.787,15.74,33.94,20.293,54.24C260.144,279.4,231.9,276.727,204.391,275.234Z"/><path class="c" d="M26.134,281C30.417,262.45,35.8,243.371,47.3,227.858c10.416-14.05,26.332-22.6,42.428-28.531,5.766-2.123,11.62-3.866,17.508-5.6,3.45-1.016,1.982-6.422-1.488-5.4-13.76,4.051-27.478,8.574-39.873,15.949a79.546,79.546,0,0,0-20.783,17.392c-6.23,7.541-10.853,16.251-14.563,25.266-4.322,10.5-7.238,21.523-9.79,32.573-.81,3.507,4.588,5,5.4,1.488Z"/><path class="c" d="M103.128,193.445a98.725,98.725,0,0,0,38.59,15.5c15.388,2.532,30.979.412,45.524-5.066,6.531-2.46,12.994-5.481,18.444-9.9a2.818,2.818,0,0,0,0-3.96,2.865,2.865,0,0,0-3.96,0c-.1.079-.6.474-.262.216-.218.168-.44.331-.662.492q-.821.6-1.671,1.149c-1.151.751-2.335,1.451-3.539,2.113a73.2,73.2,0,0,1-8.019,3.782,98.529,98.529,0,0,1-20.608,5.759c-14.5,2.381-29.163.064-42.75-5.3a95.985,95.985,0,0,1-18.261-9.62,2.8,2.8,0,1,0-2.826,4.835Z"/><path class="c" d="M286.134,279.508c-4.405-19.078-10.034-38.9-21.962-54.794-11.214-14.94-27.586-24.1-44.808-30.517-6-2.236-12.1-4.062-18.238-5.869-3.464-1.02-4.944,4.383-1.489,5.4,13.19,3.883,26.295,8.166,38.206,15.19a75.33,75.33,0,0,1,19.854,16.56c5.806,6.983,10.17,15.326,13.561,23.715,4.153,10.273,6.987,21.024,9.476,31.8.811,3.51,6.212,2.025,5.4-1.488Z"/><path class="f" d="M52.048,136.97q-8.2-9.056-16.452-18.371L30.9,153.125c39.432,38.953,83.97,85.912,130.9,122.631,3.745-.058,7.417-.085,11-.085,6.544,0,13.4.091,20.446.277C151.076,240.482,102.309,192.461,52.048,136.97Z"/><path class="c" d="M33.616,120.578q31.509,35.575,64.594,69.715c19.816,20.371,40.106,40.295,61.065,59.492q15.6,14.291,31.763,27.959a2.877,2.877,0,0,0,3.96,0,2.824,2.824,0,0,0,0-3.96c-19.982-16.828-39.229-34.52-58-52.682q-32.33-31.278-62.921-64.288-18.51-19.86-36.5-40.195a2.8,2.8,0,0,0-3.96,3.959Z"/><path class="c" d="M28.921,155.1c16.236,16.042,32.247,32.309,48.5,48.336,16.96,16.729,34.166,33.226,52.042,48.979,9.946,8.764,20.1,17.293,30.544,25.463a2.892,2.892,0,0,0,3.96,0c.969-.969,1.2-3.023,0-3.96C145.238,259.27,127.429,243.477,110.1,227.2c-17.178-16.134-33.881-32.761-50.534-49.433q-13.321-13.335-26.687-26.626c-2.566-2.535-6.528,1.422-3.96,3.96Z"/><path class="g" d="M229.3,292.457c0-40.5-30.84-74.6-75.067-74.6-44.384,0-75.062,34.376-75.062,74.6L58.3,292.263c0-51.414,39.211-95.351,95.94-95.351,56.529,0,95.947,43.587,95.947,95.351Z"/><path class="c" d="M252.983,292.263a100.052,100.052,0,0,0-17.153-56.3,96.035,96.035,0,0,0-46.325-35.82,105.426,105.426,0,0,0-63.581-2.226,95.662,95.662,0,0,0-48.958,32.3,99.668,99.668,0,0,0-21.2,54.73c-.178,2.437-.262,4.879-.266,7.322-.006,3.6,5.594,3.609,5.6,0A94.484,94.484,0,0,1,77.337,239.07a90.062,90.062,0,0,1,43.353-33.6,100.042,100.042,0,0,1,60.3-2.178,90.352,90.352,0,0,1,46.3,30.489A93.576,93.576,0,0,1,247.115,284.9c.179,2.451.264,4.908.268,7.367.006,3.6,5.606,3.609,5.6,0Z"/><path class="d" d="M96.969,257.226c3.938-1.737,8.235.029,9.69,1.746,1.644,1.94,2.5,5.866,2.137,8.384a35.778,35.778,0,0,1-4.026,11.471,10.782,10.782,0,0,1-8.4,5.428s-8,1.215-9.445-4.9S96.969,257.226,96.969,257.226Z"/><path class="d" d="M209.9,257.226c-3.938-1.737-8.236.029-9.69,1.746-1.644,1.94-2.5,5.866-2.137,8.384a35.754,35.754,0,0,0,4.026,11.471,10.781,10.781,0,0,0,8.4,5.428s10.077,2.5,9.2-7.119C218.791,267.233,209.9,257.226,209.9,257.226Z"/><path class="c" d="M232.1,292.457a78.886,78.886,0,0,0-13.526-44.391,75.844,75.844,0,0,0-36.6-28.276,83.062,83.062,0,0,0-50.112-1.721A75.4,75.4,0,0,0,93.39,243.43a78.655,78.655,0,0,0-16.8,43.206c-.144,1.937-.211,3.879-.215,5.821-.008,3.6,5.592,3.609,5.6,0a73.336,73.336,0,0,1,12.538-41.184,69.885,69.885,0,0,1,33.565-26.109A77.657,77.657,0,0,1,174.9,223.4a70.09,70.09,0,0,1,36.078,23.748A72.656,72.656,0,0,1,226.3,286.766c.137,1.894.2,3.792.2,5.691.008,3.6,5.608,3.61,5.6,0Z"/><path class="c" d="M97.713,259.926a6.771,6.771,0,0,1,4.658-.322,4.975,4.975,0,0,1,2.235,1.262c1.565,2.079,1.677,5.134,1.191,7.392-1.1,5.11-3.41,12.532-9.431,13.2a2.883,2.883,0,0,0-2.8,2.8,2.817,2.817,0,0,0,2.8,2.8,13.989,13.989,0,0,0,10.631-6.5,33.669,33.669,0,0,0,4.414-11.92c.656-3.894-.06-8.605-2.772-11.645-2.932-3.286-8.474-4.076-12.414-2.465a2.889,2.889,0,0,0-1.956,3.444c.364,1.325,2.036,2.531,3.444,1.955Z"/><path class="d" d="M63.289,240.315c11.434-4.08,27.425,1.231,33.605,12.06,2.375,4.162,2.325,10.983-4.159,12.636,4.1,3.735,4.512,8.518,2.21,12.188-1.088,1.734-3.755,2.553-5.731,2.619a12.941,12.941,0,0,1-3.222-.306l.285.306A7.862,7.862,0,0,1,88.041,287a9.022,9.022,0,0,1-3.668,5.965c-2.7,1.67-7.384.866-9.774-.369l-.472-.244.588.718c2.19,2.67-.448,7.734-2.434,9.048-5.722,3.786-12.372.371-18.851-2.732-5-2.4-9.684-7.318-11.047-12.06-1.1-3.81-1.568-6.648-1.079-13.263.871-11.773,5.714-22.387,16.661-30.871A19.2,19.2,0,0,1,63.289,240.315Z"/><path class="c" d="M91.4,267.619c2.006,2.159,2.809,5,1.483,7.545a3.228,3.228,0,0,1-2.511,1.687,6.436,6.436,0,0,1-2.034.165,10.332,10.332,0,0,1-2.359-.392c-3.417-.937-6.627-2.924-9.81-4.45-3.454-1.657-6.914-3.3-10.32-5.058-3.2-1.647-6.035,3.184-2.826,4.836,3.143,1.618,6.332,3.145,9.52,4.674,3.259,1.563,6.477,3.309,9.827,4.667,6.382,2.587,14.976,1.4,16.509-6.449a12.643,12.643,0,0,0-3.52-11.185c-2.458-2.645-6.411,1.322-3.959,3.96Z"/><path class="c" d="M84.3,281.8a4.747,4.747,0,0,1,1.148,3.428,8.1,8.1,0,0,1-1.1,3.778c-1.429,2.4-3.918,2.437-6.518,1.795a17.128,17.128,0,0,1-3.967-1.694c-1.744-.855-3.505-1.674-5.264-2.5a97.36,97.36,0,0,1-9.787-5.009c-3.08-1.891-5.9,2.951-2.826,4.836a122.175,122.175,0,0,0,12.026,6.058c3.892,1.833,7.487,4.041,11.9,4.213a10.067,10.067,0,0,0,10.095-6.59,11.528,11.528,0,0,0-1.75-12.277,2.8,2.8,0,1,0-3.96,3.96Z"/><path class="c" d="M72.3,294.487s.492.788.287.332c.014.031.2.9.141.388a2.411,2.411,0,0,1-.087,1.237,7.982,7.982,0,0,1-1.332,2.786c.075-.092-1.07.892-.439.475a7.3,7.3,0,0,1-1.81.91,8.772,8.772,0,0,1-4.139.242c-3.4-.567-6.578-2.2-9.653-3.682a22.068,22.068,0,0,1-7.149-5.364,15.482,15.482,0,0,1-3.406-6.584,21.937,21.937,0,0,1-.8-6.2A45.533,45.533,0,0,1,46.6,262.566,37.711,37.711,0,0,1,55.58,248.98a29.082,29.082,0,0,1,6.2-4.941,20.287,20.287,0,0,1,8.784-2.276,29.289,29.289,0,0,1,3.688.1,20.55,20.55,0,0,1,2.96.452,32.6,32.6,0,0,1,3.646.987,26.427,26.427,0,0,1,11.226,7.176c1.463,1.619,3.073,3.875,3.389,6.228.282,2.1-.663,5.4-2.928,5.035a15.172,15.172,0,0,1-4.16-1.8c-1.8-.9-3.622-1.763-5.439-2.63-3.3-1.573-6.618-3.116-9.875-4.776-3.2-1.633-6.042,3.2-2.827,4.835,3.328,1.7,6.716,3.27,10.087,4.878,1.805.86,3.616,1.712,5.4,2.616a25.25,25.25,0,0,0,4.983,2.2,8.021,8.021,0,0,0,9.324-4.462,12.625,12.625,0,0,0-.2-10.557c-2.257-5.137-7.181-9.269-12.049-11.825a34.855,34.855,0,0,0-16.616-4.065,25.514,25.514,0,0,0-15.863,5.6A44.515,44.515,0,0,0,42.647,257.6a49.964,49.964,0,0,0-4.316,19.744c-.17,6.2,1.038,12.383,4.939,17.349a25.48,25.48,0,0,0,8.225,6.851,47.443,47.443,0,0,0,11.315,4.589c3.858.836,8.1.54,11.339-1.935a11.535,11.535,0,0,0,4.17-8.09,6.741,6.741,0,0,0-1.186-4.449,2.887,2.887,0,0,0-3.831-1,2.819,2.819,0,0,0-1,3.83Z"/><path class="c" d="M210.644,254.527c-3.941-1.611-9.482-.821-12.414,2.465-2.712,3.04-3.428,7.751-2.772,11.645a33.648,33.648,0,0,0,4.413,11.92,13.993,13.993,0,0,0,10.632,6.5,2.817,2.817,0,0,0,2.8-2.8,2.866,2.866,0,0,0-2.8-2.8c-6.021-.665-8.331-8.087-9.431-13.2a9.669,9.669,0,0,1,1.1-7.26,3.309,3.309,0,0,1,.741-.684,6.124,6.124,0,0,1,1.58-.71,6.752,6.752,0,0,1,4.657.322c1.4.573,3.078-.621,3.445-1.955a2.869,2.869,0,0,0-1.956-3.444Z"/><path class="d" d="M243.58,240.315c-11.434-4.08-27.425,1.231-33.605,12.06-2.376,4.162-2.325,10.983,4.159,12.636-4.1,3.735-4.512,8.518-2.21,12.188,1.088,1.734,3.755,2.553,5.73,2.619a12.945,12.945,0,0,0,3.223-.306l-.285.306A7.856,7.856,0,0,0,218.828,287a9.021,9.021,0,0,0,3.667,5.965c2.7,1.67,7.385.866,9.775-.369l.472-.244-.589.718c-2.189,2.67.448,7.734,2.435,9.048,5.721,3.786,12.372.371,18.851-2.732,5-2.4,9.683-7.318,11.047-12.06,1.1-3.81,1.567-6.648,1.078-13.263-.87-11.773-5.713-22.387-16.661-30.871A19.179,19.179,0,0,0,243.58,240.315Z"/><path class="c" d="M211.507,263.659a12.7,12.7,0,0,0-3.745,9.578c.288,3.327,1.823,6.693,4.97,8.18,7.019,3.315,13.956-1.128,20.194-4.121,3.653-1.753,7.315-3.489,10.918-5.344,3.205-1.65.375-6.484-2.827-4.836-3.406,1.754-6.866,3.4-10.32,5.058-3.182,1.526-6.393,3.513-9.81,4.45a10.269,10.269,0,0,1-2.358.392,6.359,6.359,0,0,1-2.034-.165,3.241,3.241,0,0,1-2.512-1.687c-1.322-2.552-.527-5.381,1.484-7.545,2.451-2.637-1.5-6.606-3.96-3.96Z"/><path class="c" d="M218.612,277.838a11.528,11.528,0,0,0-1.75,12.277,10.066,10.066,0,0,0,10.095,6.59c4.412-.172,8.007-2.38,11.9-4.213a122.286,122.286,0,0,0,12.026-6.058c3.066-1.883.256-6.728-2.826-4.836a95.6,95.6,0,0,1-9.584,4.914c-1.76.824-3.522,1.643-5.269,2.5-.866.423-1.716.9-2.593,1.3.386-.176-.459.171-.451.168-.368.126-.743.233-1.121.327-2.493.616-5,.639-6.417-1.633a7.47,7.47,0,0,1-.905-2.083,10.609,10.609,0,0,1-.237-1.1c.073.454-.043-.487-.048-.6a4.736,4.736,0,0,1,1.141-3.585,2.868,2.868,0,0,0,0-3.96,2.827,2.827,0,0,0-3.96,0Z"/><path class="c" d="M229.736,291.661c-2.04,2.719-1.2,6.56.307,9.311a10.738,10.738,0,0,0,8.049,5.434c4.069.609,7.974-.658,11.674-2.24a40.652,40.652,0,0,0,10.176-5.717,22.859,22.859,0,0,0,6.5-8.38,27.815,27.815,0,0,0,1.98-8.319,48.323,48.323,0,0,0-2.276-19.328A43.744,43.744,0,0,0,255.532,245.3c-4.318-4.322-9.2-7.751-15.335-8.73-11.4-1.819-24.053,2.7-31.066,12.018a15.645,15.645,0,0,0-3.379,8.647c-.186,3.63,1.49,7.648,4.876,9.334,3.662,1.824,7.205-.038,10.506-1.711,3.6-1.824,7.277-3.5,10.915-5.245,1.531-.735,3.058-1.478,4.571-2.249,3.212-1.637.382-6.47-2.826-4.835-2.912,1.484-5.872,2.871-8.823,4.275-3.03,1.442-6.006,3.105-9.085,4.43a4.175,4.175,0,0,1-2.432.5,3.552,3.552,0,0,1-1.968-2.613,8.245,8.245,0,0,1,1.53-6.357,24.108,24.108,0,0,1,10.15-8.346,28.71,28.71,0,0,1,13.134-2.656,20.449,20.449,0,0,1,6.275,1.161,18.22,18.22,0,0,1,5.347,3.045,40.9,40.9,0,0,1,10.919,13.325,40.419,40.419,0,0,1,3.957,15.25c.1,1.491.172,2.985.157,4.48-.006.658-.028,1.316-.074,1.973q-.025.376-.062.753c-.01.107-.13,1.048-.056.537a19.747,19.747,0,0,1-1.781,6.278,19.433,19.433,0,0,1-6.552,7.048,40.833,40.833,0,0,1-10.193,4.684,12.264,12.264,0,0,1-5,.651,7.245,7.245,0,0,1-2.007-.537c-.3-.132-.566-.323-.854-.47q-.666-.45-.153-.059c-.123-.1-.24-.213-.353-.328a7.643,7.643,0,0,1-1.516-2.648c-.363-1.212-.356-1.653.218-2.419a2.817,2.817,0,0,0-1-3.83,2.867,2.867,0,0,0-3.831,1Z"/><path class="d" d="M304.832,302.063V287.234c-40.685-9.067-103.343-13.427-151.04-13.427s-110.354,4.36-151.04,13.427v23.584a4,4,0,0,0,4,4h294.08a4,4,0,0,0,4-4Z"/><path class="c" d="M305.576,284.534c-18.439-4.095-37.234-6.6-56.007-8.563-20.828-2.178-41.742-3.564-62.668-4.333q-29.377-1.079-58.772-.245-31.351.912-62.61,3.829a557.258,557.258,0,0,0-57.553,8.049q-2.985.6-5.958,1.263c-3.517.781-2.028,6.181,1.489,5.4a484.77,484.77,0,0,1,55.016-8.415c20.663-2.147,41.411-3.518,62.17-4.281q29.377-1.079,58.772-.245,30.974.9,61.855,3.758a545.073,545.073,0,0,1,56.82,7.92q2.985.6,5.958,1.263c3.511.78,5.01-4.618,1.488-5.4Z"/></svg>